<svg width="1920" height="1829" viewBox="0 0 1920 1829" fill="none" xmlns="http://www.w3.org/2000/svg">
<path opacity="0.05" d="M422.814 447.312L383.643 460.424C381.92 461.002 380.373 462.04 379.158 463.435C377.944 464.83 377.104 466.533 376.723 468.372C376.342 470.211 376.434 472.122 376.989 473.913C377.544 475.704 378.543 477.311 379.885 478.574L410.405 507.265C411.748 508.528 413.386 509.4 415.156 509.796C416.926 510.192 418.765 510.096 420.488 509.519C422.212 508.942 423.758 507.904 424.973 506.509C426.188 505.114 427.028 503.412 427.409 501.572L436.081 459.735C436.457 457.896 436.36 455.986 435.801 454.198C435.242 452.41 434.24 450.806 432.896 449.547C431.552 448.289 429.912 447.42 428.143 447.027C426.373 446.635 424.536 446.733 422.814 447.312Z" stroke="white" stroke-width="6" stroke-miterlimit="10"/>
<path opacity="0.05" d="M211.467 499.072L101.611 430.779C100.057 429.814 98.2865 429.291 96.4766 429.262C94.6667 429.234 92.8815 429.701 91.3002 430.616C89.719 431.532 88.3974 432.864 87.4683 434.478C86.5391 436.092 86.0351 437.932 86.0068 439.813L84.0203 572.826C83.9936 574.706 84.4435 576.561 85.3249 578.204C86.2063 579.846 87.4881 581.219 89.0416 582.184C90.595 583.149 92.3655 583.672 94.1751 583.701C95.9848 583.73 97.7699 583.264 99.3513 582.349L211.193 517.629C212.774 516.713 214.094 515.381 215.023 513.767C215.951 512.153 216.454 510.313 216.482 508.433C216.509 506.552 216.061 504.697 215.18 503.054C214.3 501.411 213.019 500.038 211.467 499.072Z" stroke="white" stroke-width="6" stroke-miterlimit="10"/>
<path opacity="0.05" d="M207.778 383.311C223.822 394.139 245.276 389.4 255.695 372.727C266.114 356.054 261.554 333.76 245.51 322.933C229.465 312.105 208.012 316.844 197.593 333.517C187.173 350.19 191.733 372.483 207.778 383.311Z" stroke="white" stroke-width="6" stroke-miterlimit="10"/>
<path opacity="0.05" d="M343.803 631.135C344.076 632.467 344.094 633.841 343.855 635.18C343.617 636.519 343.127 637.795 342.414 638.937C341.7 640.079 340.777 641.063 339.697 641.834C338.617 642.605 337.402 643.147 336.12 643.429L320.531 646.894L323.82 663.111C324.094 664.442 324.112 665.817 323.873 667.155C323.635 668.494 323.145 669.771 322.431 670.912C321.718 672.054 320.795 673.039 319.715 673.809C318.635 674.58 317.419 675.122 316.138 675.404C313.55 675.972 310.852 675.45 308.634 673.954C306.417 672.457 304.861 670.108 304.308 667.421L300.989 651.196L285.376 654.645C282.789 655.213 280.09 654.691 277.873 653.194C275.655 651.698 274.099 649.348 273.546 646.661C273.272 645.33 273.254 643.955 273.493 642.617C273.731 641.278 274.221 640.001 274.935 638.86C275.648 637.718 276.571 636.733 277.651 635.963C278.731 635.192 279.947 634.65 281.228 634.368L296.841 630.919L293.523 614.694C293.249 613.363 293.232 611.988 293.47 610.65C293.708 609.311 294.198 608.034 294.912 606.893C295.625 605.751 296.548 604.766 297.628 603.996C298.708 603.225 299.924 602.683 301.205 602.401C302.487 602.117 303.809 602.098 305.097 602.346C306.386 602.594 307.614 603.103 308.713 603.844C309.812 604.586 310.759 605.545 311.501 606.667C312.242 607.789 312.764 609.052 313.035 610.384L316.354 626.609L331.94 623.13C333.225 622.842 334.552 622.82 335.846 623.067C337.139 623.314 338.372 623.824 339.474 624.568C340.577 625.312 341.527 626.275 342.27 627.402C343.013 628.529 343.534 629.798 343.803 631.135Z" stroke="white" stroke-width="4" stroke-miterlimit="10"/>
<g filter="url(#filter0_f_1_528)">
<rect x="453" y="500" width="968" height="36" rx="18" fill="#00F2EA"/>
</g>
<path opacity="0.05" d="M1643.85 676.802L1678.31 700.185C1679.82 701.213 1681.57 701.809 1683.38 701.912C1685.19 702.015 1686.99 701.622 1688.6 700.772C1690.22 699.922 1691.59 698.645 1692.58 697.07C1693.57 695.495 1694.14 693.676 1694.24 691.798L1696.49 649.094C1696.59 647.215 1696.21 645.343 1695.4 643.664C1694.58 641.986 1693.35 640.561 1691.83 639.532C1690.32 638.504 1688.57 637.908 1686.76 637.805C1684.95 637.701 1683.15 638.095 1681.53 638.944L1644.79 658.27C1643.18 659.124 1641.81 660.404 1640.82 661.981C1639.84 663.558 1639.27 665.376 1639.17 667.254C1639.08 669.132 1639.46 671.002 1640.28 672.678C1641.1 674.354 1642.33 675.776 1643.85 676.802Z" stroke="white" stroke-width="6" stroke-miterlimit="10"/>
<path opacity="0.05" d="M1815.56 814.91L1833.62 946.606C1833.88 948.468 1834.6 950.227 1835.72 951.707C1836.84 953.187 1838.31 954.334 1839.99 955.035C1841.67 955.736 1843.5 955.965 1845.29 955.7C1847.08 955.434 1848.77 954.684 1850.2 953.523L1950.92 871.419C1952.35 870.257 1953.45 868.727 1954.12 866.981C1954.8 865.236 1955.02 863.336 1954.76 861.475C1954.51 859.613 1953.78 857.854 1952.67 856.374C1951.55 854.894 1950.08 853.746 1948.4 853.045L1829.61 803.452C1827.93 802.753 1826.11 802.524 1824.31 802.791C1822.52 803.057 1820.83 803.808 1819.41 804.969C1817.98 806.13 1816.88 807.66 1816.2 809.405C1815.53 811.15 1815.31 813.048 1815.56 814.91Z" stroke="white" stroke-width="6" stroke-miterlimit="10"/>
<path opacity="0.05" d="M1731.31 890.74C1729.31 870.968 1712.27 856.625 1693.24 858.703C1674.21 860.781 1660.41 878.494 1662.41 898.265C1664.41 918.036 1681.46 932.38 1700.48 930.302C1719.51 928.224 1733.31 910.511 1731.31 890.74Z" stroke="white" stroke-width="6" stroke-miterlimit="10"/>
<path opacity="0.05" d="M1831.04 624.927C1831.87 623.869 1832.88 622.989 1834.04 622.339C1835.19 621.689 1836.45 621.281 1837.75 621.139C1839.06 620.997 1840.37 621.123 1841.63 621.51C1842.88 621.897 1844.06 622.537 1845.07 623.395L1857.47 633.803L1867.53 620.942C1868.36 619.883 1869.37 619.004 1870.52 618.354C1871.67 617.704 1872.94 617.296 1874.24 617.154C1875.54 617.011 1876.86 617.137 1878.12 617.525C1879.37 617.912 1880.54 618.552 1881.56 619.41C1883.61 621.142 1884.92 623.649 1885.2 626.382C1885.47 629.115 1884.7 631.85 1883.04 633.988L1872.99 646.878L1885.39 657.317C1887.45 659.049 1888.76 661.556 1889.03 664.289C1889.31 667.022 1888.53 669.757 1886.87 671.895C1886.05 672.953 1885.03 673.833 1883.88 674.483C1882.73 675.133 1881.46 675.541 1880.16 675.683C1878.86 675.825 1877.54 675.699 1876.28 675.312C1875.03 674.925 1873.86 674.285 1872.84 673.427L1860.44 662.989L1850.39 675.879C1849.57 676.938 1848.55 677.817 1847.4 678.467C1846.25 679.117 1844.99 679.525 1843.68 679.667C1842.38 679.809 1841.06 679.683 1839.81 679.296C1838.55 678.909 1837.38 678.269 1836.36 677.411C1835.34 676.555 1834.5 675.499 1833.87 674.303C1833.25 673.106 1832.85 671.794 1832.72 670.44C1832.58 669.086 1832.7 667.717 1833.07 666.412C1833.45 665.107 1834.06 663.891 1834.89 662.833L1844.93 649.943L1832.52 639.545C1831.5 638.689 1830.65 637.63 1830.02 636.431C1829.39 635.231 1828.99 633.914 1828.86 632.556C1828.72 631.197 1828.84 629.823 1829.22 628.514C1829.59 627.205 1830.21 625.986 1831.04 624.927Z" stroke="white" stroke-width="4" stroke-miterlimit="10"/>
<g opacity="0.6">
<path d="M286.411 1170.84H271.916V1186.9H286.411V1170.84Z" fill="#FF0050"/>
<path d="M141.46 1039.29H126.965V1055.35H141.46V1039.29Z" fill="#FF0050"/>
<path d="M176.248 1266.24H161.753V1282.3H176.248V1266.24Z" fill="#00F2EA"/>
<path d="M203.306 1074.43H188.81V1090.5H203.306V1074.43Z" fill="#00F2EA"/>
<path d="M407.205 1108.58H392.709V1124.64H407.205V1108.58Z" fill="#00F2EA"/>
<path d="M156.921 1058.37H143.393V1259.21H156.921V1058.37Z" fill="#FF0050"/>
<path d="M1496.28 1191.92H1509.8V990.081H1496.28V1191.92Z" fill="#00F2EA"/>
<path d="M1715.81 1069.41H1730.3V1053.34H1715.81V1069.41Z" fill="#FF0050"/>
<path d="M1681.02 1296.36H1695.51V1280.29H1681.02V1296.36Z" fill="#00F2EA"/>
<path d="M1653.96 1104.56H1668.46V1088.49H1653.96V1104.56Z" fill="#00F2EA"/>
<path d="M701.94 1178.87H715.469V1162.8H701.94V1178.87Z" fill="#00F2EA"/>
<path d="M1700.35 1273.26H1713.88V1072.42H1700.35V1273.26Z" fill="#FF0050"/>
<path d="M1540.73 1210H1527.2V1226.07H1540.73V1210Z" fill="#FF0050"/>
<path d="M580.181 1073.43H565.685V1089.5H580.181V1073.43Z" fill="#FF0050"/>
<path d="M1511.74 1209H1526.23V1192.93H1511.74V1209Z" fill="#00F2EA"/>
<path d="M1496.28 1193.93H1481.78V1244.14H1496.28V1193.93Z" fill="#FF0050"/>
</g>
<defs>
<filter id="filter0_f_1_528" x="-47.0002" y="0" width="1968" height="1036" filterUnits="userSpaceOnUse" color-interpolation-filters="sRGB">
<feFlood flood-opacity="0" result="BackgroundImageFix"/>
<feBlend mode="normal" in="SourceGraphic" in2="BackgroundImageFix" result="shape"/>
<feGaussianBlur stdDeviation="250" result="effect1_foregroundBlur_1_528"/>
</filter>
</defs>
</svg>
