<svg width="1919" height="1409" viewBox="0 0 1919 1409" fill="none" xmlns="http://www.w3.org/2000/svg">
<rect width="1920" height="1409" fill="#111111"/>
<path opacity="0.05" d="M1812.97 317.908L1634.64 229.184C1632.12 227.929 1629.36 227.471 1626.64 227.858C1623.92 228.245 1621.34 229.462 1619.14 231.388C1616.95 233.313 1615.24 235.879 1614.16 238.828C1613.09 241.776 1612.7 245.003 1613.03 248.184L1636.55 473.089C1636.89 476.268 1637.93 479.289 1639.58 481.848C1641.22 484.407 1643.41 486.415 1645.93 487.669C1648.45 488.924 1651.21 489.381 1653.93 488.995C1656.65 488.609 1659.23 487.393 1661.42 485.469L1816.25 349.241C1818.43 347.315 1820.14 344.752 1821.21 341.809C1822.28 338.865 1822.67 335.644 1822.33 332.47C1822 329.296 1820.96 326.28 1819.32 323.724C1817.67 321.168 1815.49 319.162 1812.97 317.908Z" stroke="#00F2EA" stroke-width="10" stroke-miterlimit="10"/>
<path opacity="0.05" d="M1803.6 388.047C1829.81 402.439 1861.03 389.267 1873.34 358.625C1885.64 327.984 1874.38 291.478 1848.17 277.085C1821.97 262.693 1790.75 275.865 1778.44 306.506C1766.13 337.148 1777.4 373.654 1803.6 388.047Z" stroke="#00F2EA" stroke-width="10" stroke-miterlimit="10"/>
<path opacity="0.05" d="M73.8707 1114.71L44.607 1157.04C43.3198 1158.9 42.4715 1161.13 42.1476 1163.5C41.8236 1165.87 42.0353 1168.3 42.7613 1170.54C43.4874 1172.79 44.7021 1174.77 46.2837 1176.28C47.8652 1177.8 49.7578 1178.8 51.7712 1179.18L97.5418 1187.83C99.5552 1188.21 101.619 1187.96 103.525 1187.11C105.43 1186.25 107.111 1184.82 108.398 1182.96C109.685 1181.1 110.532 1178.87 110.854 1176.5C111.176 1174.13 110.962 1171.7 110.234 1169.46L93.7266 1118.42C92.9946 1116.18 91.7761 1114.21 90.1932 1112.71C88.6102 1111.2 86.7184 1110.21 84.7074 1109.83C82.6964 1109.45 80.6367 1109.71 78.7348 1110.56C76.8328 1111.42 75.1555 1112.85 73.8707 1114.71Z" stroke="#8AE8E5" stroke-width="10" stroke-miterlimit="10"/>
<path opacity="0.05" d="M253.269 1240.29C256.935 1244.58 258.994 1250.4 258.994 1256.47C258.994 1262.53 256.935 1268.35 253.269 1272.64L231.144 1298.49L253.269 1324.36C255.086 1326.49 256.527 1329.01 257.51 1331.78C258.494 1334.55 259 1337.53 259 1340.53C259 1343.53 258.494 1346.51 257.51 1349.28C256.527 1352.05 255.086 1354.57 253.269 1356.7C251.454 1358.82 249.299 1360.51 246.926 1361.66C244.554 1362.81 242.011 1363.4 239.443 1363.4C236.875 1363.4 234.332 1362.81 231.96 1361.66C229.588 1360.51 227.432 1358.82 225.618 1356.7L203.493 1330.85L181.369 1356.7C179.554 1358.82 177.399 1360.51 175.026 1361.66C172.654 1362.81 170.111 1363.4 167.543 1363.4C164.975 1363.4 162.432 1362.81 160.06 1361.66C157.688 1360.51 155.532 1358.82 153.718 1356.7C150.057 1352.4 148.002 1346.59 148.002 1340.53C148.002 1334.47 150.057 1328.65 153.718 1324.36L175.842 1298.49L153.718 1272.64C150.056 1268.35 148 1262.53 148 1256.47C148 1250.4 150.056 1244.58 153.718 1240.29C157.388 1236.01 162.36 1233.61 167.543 1233.61C172.726 1233.61 177.698 1236.01 181.369 1240.29L203.493 1266.16L225.618 1240.29C229.288 1236.01 234.26 1233.61 239.443 1233.61C244.626 1233.61 249.598 1236.01 253.269 1240.29Z" stroke="#8AE8E5" stroke-width="10" stroke-miterlimit="10"/>
<path d="M1520.41 1285.27H1505.97V1302.14H1520.41V1285.27Z" fill="#00F2EA"/>
<path d="M1434.43 1145H1420V1161.87H1434.43V1145Z" fill="#FF0050"/>
<path d="M1723.43 1321.13H1709V1338H1723.43V1321.13Z" fill="#FF0050"/>
<path d="M1727.91 1218.82H1741.38V1201.94H1727.91V1218.82Z" fill="#00F2EA"/>
<path d="M1776.65 1389.67H1790.12V1372.8H1776.65V1389.67Z" fill="#00F2EA"/>
<path d="M1895.67 1284.22H1881.24V1301.09H1895.67V1284.22Z" fill="#FF0050"/>
<path opacity="0.05" d="M772.755 509.422L876.295 579.683C880.85 582.774 886.108 584.564 891.54 584.873C896.972 585.183 902.387 584.002 907.241 581.448C912.094 578.894 916.215 575.058 919.19 570.324C922.165 565.591 923.888 560.127 924.187 554.483L930.949 426.162C931.246 420.517 930.109 414.89 927.651 409.847C925.193 404.803 921.501 400.521 916.945 397.43C912.39 394.339 907.132 392.549 901.7 392.239C896.268 391.929 890.853 393.11 885.999 395.663L775.583 453.735C770.739 456.302 766.631 460.148 763.67 464.886C760.709 469.624 758.999 475.089 758.713 480.731C758.426 486.373 759.573 491.994 762.037 497.029C764.502 502.065 768.198 506.339 772.755 509.422Z" stroke="#00F2EA" stroke-width="18.0293" stroke-miterlimit="10"/>
<path opacity="0.05" d="M1029.74 763.662L1057.75 967.867C1058.15 970.754 1059.27 973.481 1061 975.776C1062.73 978.07 1065.02 979.85 1067.62 980.936C1070.23 982.023 1073.06 982.378 1075.84 981.967C1078.62 981.555 1081.24 980.391 1083.45 978.591L1239.63 851.283C1241.84 849.482 1243.55 847.108 1244.6 844.402C1245.64 841.695 1245.98 838.75 1245.58 835.863C1245.19 832.976 1244.07 830.249 1242.33 827.955C1240.6 825.66 1238.32 823.88 1235.72 822.792L1051.53 745.895C1048.92 744.81 1046.09 744.456 1043.31 744.869C1040.54 745.282 1037.91 746.447 1035.7 748.247C1033.5 750.047 1031.78 752.419 1030.74 755.125C1029.69 757.831 1029.35 760.775 1029.74 763.662Z" stroke="#00F2EA" stroke-width="9.30345" stroke-miterlimit="10"/>
<path opacity="0.05" d="M843.448 747.509C840.348 716.852 813.918 694.612 784.417 697.834C754.916 701.056 733.514 728.521 736.614 759.178C739.715 789.835 766.144 812.075 795.646 808.853C825.147 805.631 846.549 778.166 843.448 747.509Z" stroke="#00F2EA" stroke-width="9.30345" stroke-miterlimit="10"/>
<path opacity="0.05" d="M1099.54 332.406C1100.81 330.764 1102.39 329.401 1104.18 328.393C1105.96 327.385 1107.92 326.753 1109.94 326.532C1111.96 326.311 1114 326.507 1115.95 327.107C1117.9 327.707 1119.71 328.7 1121.29 330.03L1140.52 346.169L1156.11 326.226C1157.39 324.585 1158.97 323.221 1160.75 322.213C1162.54 321.206 1164.5 320.573 1166.52 320.353C1168.54 320.132 1170.58 320.327 1172.53 320.928C1174.47 321.528 1176.29 322.521 1177.87 323.85C1181.05 326.536 1183.08 330.424 1183.51 334.661C1183.93 338.899 1182.73 343.14 1180.15 346.455L1164.58 366.443L1183.81 382.629C1186.99 385.314 1189.02 389.202 1189.45 393.44C1189.88 397.677 1188.67 401.918 1186.1 405.233C1184.82 406.874 1183.24 408.238 1181.46 409.246C1179.67 410.254 1177.72 410.886 1175.7 411.107C1173.68 411.327 1171.63 411.132 1169.69 410.532C1167.74 409.932 1165.92 408.938 1164.35 407.609L1145.11 391.423L1129.54 411.411C1128.26 413.052 1126.68 414.416 1124.9 415.424C1123.11 416.431 1121.15 417.064 1119.13 417.284C1117.11 417.505 1115.07 417.31 1113.12 416.71C1111.18 416.109 1109.36 415.116 1107.78 413.787C1106.2 412.459 1104.89 410.821 1103.92 408.966C1102.95 407.112 1102.34 405.076 1102.13 402.977C1101.92 400.878 1102.11 398.755 1102.68 396.731C1103.26 394.708 1104.22 392.822 1105.5 391.182L1121.07 371.194L1101.83 355.072C1100.24 353.744 1098.92 352.103 1097.94 350.243C1096.97 348.383 1096.36 346.341 1096.14 344.235C1095.93 342.128 1096.12 339.998 1096.7 337.968C1097.29 335.938 1098.25 334.047 1099.54 332.406Z" stroke="#00F2EA" stroke-width="6.2023" stroke-miterlimit="10"/>
<path d="M147.204 180.822H157.465V170H147.204V180.822Z" fill="#00F2EA"/>
<path d="M122.495 333.469H132.756V322.647H122.495V333.469Z" fill="#FF0050"/>
<path d="M103 204.152H113.261V193.33H103V204.152Z" fill="#FF0050"/>
<path d="M135.704 317.759H145.965L145.965 182.494H135.704L135.704 317.759Z" fill="#00F2EA"/>
</svg>
